<!-- Generated by IcoMoon.io -->
<svg version="1.1" xmlns="http://www.w3.org/2000/svg" width="1024" height="1024" viewBox="0 0 1024 1024">
<g id="icomoon-ignore">
</g>
<path d="M233.984 171.349c-4.437 6.315-5.291 20.139-5.291 80.213 0 94.891-8.704 86.357 87.040 86.357 80.725 0 87.040-1.536 87.040-22.187 0-18.773-9.216-22.187-58.88-22.357h-45.227l15.36-13.483c87.893-76.459 229.035-94.208 332.8-41.813 158.549 80.043 216.917 276.992 127.317 429.227-84.821 143.701-273.067 191.829-417.451 106.837-84.139-49.664-140.459-140.117-148.139-237.397-3.072-39.253-6.315-45.227-24.405-45.227-31.744 0-25.429 86.869 11.947 165.888 93.355 197.803 332.8 263.509 514.219 141.141 137.216-92.331 188.757-281.6 117.589-431.957-100.011-211.797-359.424-268.288-543.744-118.784l-11.093 9.045v-39.595c0-35.157-0.853-40.619-6.827-46.592-9.216-9.216-25.429-8.875-32.256 0.683zM415.573 371.883c-48.299 18.261-90.112 35.328-93.013 37.717-8.363 6.997-7.68 218.453 0.853 226.133 8.021 7.339 177.323 70.827 188.587 70.827 11.435 0 180.395-63.317 188.587-70.656 8.533-7.851 9.216-219.307 0.853-226.304-7.68-6.315-182.443-71.68-190.805-71.339-3.925 0-46.763 15.189-95.061 33.621zM560.981 400.896c27.477 10.24 52.565 19.968 55.637 21.675 5.803 3.243 5.973 3.243-73.045 32.597l-31.573 11.776-53.419-20.139c-29.355-11.093-54.101-20.651-54.784-21.504-0.853-0.683 9.045-5.291 21.845-10.069 25.6-9.728 84.48-32.427 84.992-32.768 0 0 22.699 8.192 50.347 18.432zM427.52 481.792l64 24.405v72.875c0 67.243-0.512 72.875-5.973 72.704-3.243-0.171-32.768-10.581-65.707-23.040l-59.733-22.869-0.853-74.24c-0.512-40.789 0.171-74.24 1.536-74.24s31.403 10.923 66.731 24.405zM665.6 530.603c0 66.389-0.512 73.557-5.973 76.459-10.411 5.461-117.931 44.885-122.709 44.885-3.584 0-4.437-15.189-4.437-72.875v-72.875l62.293-24.064c34.304-13.312 64.171-24.235 66.56-24.405 3.243-0.341 4.267 16.384 4.267 72.875z"></path>
</svg>
