<!-- Generated by IcoMoon.io -->
<svg version="1.1" xmlns="http://www.w3.org/2000/svg" width="1024" height="1024" viewBox="0 0 1024 1024">
<g id="icomoon-ignore">
</g>
<path d="M693.476 257.252c-4.437 1.82-49.38 18.887-88.178 33.564-2.162 0.796-6.827 2.617-10.24 3.868-3.413 1.365-10.581 3.982-15.815 5.803l-9.444 3.3h-162.361c-89.202 0-164.75 0.228-167.936 0.683-29.81 3.868-55.296 28.217-60.985 58.482-2.389 12.743-2.389 333.141 0 345.884 5.348 28.444 28.9 51.996 57.572 57.458 13.198 2.503 536.348 2.503 549.547 0 27.42-5.234 50.176-26.965 57.23-54.613 1.593-5.916 1.82-31.061 2.162-200.249 0.455-217.543 1.138-200.59-7.964-205.824-2.617-1.479-6.030-3.072-7.623-3.527s-8.761-3.072-15.929-5.916c-14.108-5.461-16.27-6.258-30.379-11.605-5.234-1.934-13.653-5.12-18.773-7.054-5.234-1.934-11.264-4.21-13.426-5.006-19.684-7.623-25.145-9.671-29.582-11.15-2.844-0.91-7.623-2.844-10.581-4.096-6.827-2.958-10.012-2.958-17.294 0zM706.788 286.606c1.479 0.683 7.509 2.958 13.426 5.234s11.833 4.551 13.084 5.006c2.731 1.138 10.809 4.324 16.839 6.485 9.33 3.527 12.971 4.892 18.432 7.054 3.186 1.252 14.108 5.461 24.462 9.33s19.684 7.851 20.821 8.875c1.934 1.707 2.048 5.348 1.707 69.063-0.455 65.877-0.569 67.243-3.072 75.662-10.24 34.020-32.427 59.62-84.992 97.735-11.15 8.192-21.504 15.474-22.983 16.156-2.276 1.252-3.413 0.796-11.378-4.665-48.128-33.223-76.117-59.392-90.908-84.764-2.503-4.324-6.030-12.288-6.030-13.54 0-0.796-0.569-1.934-1.138-2.503-0.683-0.683-2.276-5.348-3.413-10.24-2.048-8.42-2.276-13.54-2.276-75.662 0-52.11 0.341-67.015 1.479-67.812 0.683-0.569 5.234-2.503 9.899-4.324 4.665-1.707 11.15-4.096 14.222-5.348 3.186-1.252 6.94-2.617 8.533-3.186s5.461-1.934 8.533-3.186c3.186-1.252 13.426-5.12 22.756-8.761 9.444-3.641 19.684-7.509 22.756-8.761 3.186-1.252 6.94-2.617 8.533-3.186s5.461-2.048 8.533-3.186c6.599-2.617 8.647-2.844 12.174-1.479zM558.535 333.824c0.91 1.024 1.252 9.671 1.024 28.672l-0.341 27.193-352.142 0.569-0.683-2.958c-1.252-5.006 0.455-20.139 2.958-27.079 3.186-8.42 12.516-18.432 21.163-22.869 4.437-2.276 8.988-3.527 14.564-4.096 4.437-0.341 76.459-0.796 160.085-0.91 127.772-0.114 152.235 0.114 153.372 1.479zM558.194 420.75c0.91 0.455 1.593 8.647 2.048 22.983 0.455 12.174 0.91 24.69 1.024 27.876l0.228 5.689-176.242 0.341c-129.252 0.114-176.583-0.114-177.721-1.024-2.162-1.82-2.276-53.362-0.228-55.41 1.024-1.024 41.529-1.365 175.559-1.365 95.687 0 174.649 0.455 175.332 0.91zM572.302 507.449c1.138 0.683 6.144 7.168 10.923 14.564 6.713 10.012 12.629 17.067 24.235 28.786 13.426 13.426 31.744 29.127 41.074 35.385 1.593 1.024 8.988 6.372 16.498 11.947 24.007 17.636 32.199 23.097 35.612 23.78 4.096 0.796 8.306-1.252 19.57-9.671 4.665-3.527 10.126-7.396 11.947-8.647 1.934-1.138 12.174-8.647 22.756-16.612 21.959-16.384 42.553-34.702 51.769-45.852 3.413-4.096 6.713-7.396 7.396-7.168 0.796 0.341 1.138 27.193 1.138 85.675v85.22l-2.617 6.485c-3.868 9.444-12.629 18.546-22.414 23.324l-7.851 3.755h-542.948l-7.851-3.755c-9.785-4.779-18.546-13.881-22.414-23.324l-2.617-6.485-0.341-97.394c-0.228-88.178-0.114-97.621 1.479-99.328 1.707-1.707 18.318-1.82 182.158-1.82 118.898 0 181.134 0.341 182.5 1.138zM751.388 388.665c-3.3 1.593-15.132 11.036-49.607 39.14-6.144 5.006-11.833 9.102-12.743 9.102s-4.324-2.958-7.737-6.485c-3.3-3.641-10.24-10.809-15.246-15.929-8.761-8.875-9.557-9.444-14.108-9.444-8.875 0-14.791 5.916-14.791 14.791 0 4.892 1.138 6.827 8.42 14.791 36.181 39.595 34.361 37.888 41.188 37.888 6.030 0 6.030 0.114 38.116-25.941 13.881-11.264 28.103-22.756 31.63-25.486 12.516-10.012 13.995-11.833 14.564-17.863 0.569-6.713-1.138-10.24-6.372-13.767-4.437-3.072-8.306-3.3-13.312-0.796zM272.043 653.995c-7.509 3.982-9.899 13.198-5.234 20.252 4.21 6.485 0.455 6.258 84.196 6.144 74.98 0 77.255-0.114 80.782-2.276 4.096-2.503 6.599-7.509 6.485-12.629-0.114-4.096-5.006-11.036-8.988-12.516-1.593-0.569-33.906-1.024-78.052-1.024-70.77 0-75.548 0.114-79.189 2.048z"></path>
</svg>
