<!-- Generated by IcoMoon.io -->
<svg version="1.1" xmlns="http://www.w3.org/2000/svg" width="1024" height="1024" viewBox="0 0 1024 1024">
<g id="icomoon-ignore">
</g>
<path d="M485.262 164.978c-42.439 2.958-89.998 20.594-127.431 47.104-28.103 19.797-52.793 45.17-71.225 73.273-12.629 19.228-27.079 50.745-32.54 70.77-7.396 27.534-9.444 40.505-10.354 66.56l-0.796 21.618-9.102 0.683c-24.917 1.82-41.756 11.264-54.5 30.379-7.282 11.036-10.354 18.773-14.45 36.636-2.162 9.671-2.503 14.108-2.503 41.529 0 27.307 0.228 31.972 2.389 42.098 5.689 25.941 14.45 41.984 29.81 54.272 10.923 8.647 24.121 13.426 37.547 13.426 5.234 0 9.216 0.569 10.012 1.365s1.365 4.665 1.365 9.557c0 9.444 1.138 13.312 5.461 17.977 5.916 6.258 6.599 6.372 54.613 6.372 24.348 0 45.966-0.341 47.9-0.683 1.934-0.455 5.234-2.389 7.396-4.324 7.964-7.282 7.509 1.479 7.509-138.923 0-135.282 0.228-130.048-5.348-136.647-5.461-6.599-6.144-6.713-41.87-7.282l-32.996-0.569-0.341-3.755c-0.683-6.485 5.461-34.588 10.126-46.99 1.252-3.413 2.731-7.396 3.3-8.988 3.072-9.444 11.15-25.6 19.911-39.708 26.055-42.098 70.315-77.596 116.053-93.184 29.013-9.785 42.894-12.060 75.662-12.060 28.672 0 39.026 1.252 62.692 7.851 63.716 17.863 118.784 66.446 145.636 128.569 1.252 3.072 2.844 6.94 3.3 8.533 0.569 1.593 2.048 5.575 3.3 8.988 4.665 12.402 10.809 40.505 10.126 46.99l-0.341 3.755-32.996 0.569c-35.726 0.569-36.409 0.683-41.87 7.282-5.575 6.599-5.348 1.365-5.348 136.647 0 140.402-0.455 131.641 7.509 138.923 2.162 1.934 5.461 3.868 7.396 4.324 1.934 0.341 17.294 0.683 34.020 0.683 27.534 0 30.492 0.228 32.085 1.934 2.617 3.072 0.91 31.63-2.389 39.936-7.737 19.456-26.169 35.271-45.625 38.912-3.3 0.569-22.073 1.138-41.643 1.138h-35.612l-2.276-3.3c-1.365-1.82-2.389-3.641-2.389-3.982 0-1.82-7.509-11.264-13.54-16.953-13.426-12.857-26.852-16.612-59.278-16.725-32.996 0-46.080 2.731-59.278 12.629-19.911 14.791-28.9 39.708-23.097 63.488 2.731 11.264 7.964 20.139 16.953 29.127 9.899 10.012 20.025 15.246 31.744 16.612 10.468 1.252 52.338 1.252 62.805 0 16.612-1.934 33.223-13.995 43.463-31.63l4.779-8.078 41.756-0.569c37.888-0.341 42.667-0.683 50.062-2.731 30.606-8.761 56.092-31.289 67.925-60.188 6.599-16.498 6.827-17.749 7.282-56.206 0.228-19.797 0.91-36.409 1.479-37.092 0.569-0.796 5.916-1.593 12.174-1.82 21.276-0.91 38.229-11.15 50.859-30.492 4.21-6.485 6.144-10.468 10.923-22.528 0.569-1.365 2.162-7.851 3.527-14.222 2.162-10.354 2.389-15.019 2.389-42.325 0-27.42-0.341-31.858-2.503-41.529-4.096-17.863-7.168-25.6-14.45-36.636-12.743-19.115-29.582-28.558-54.5-30.379l-9.102-0.683-0.796-21.618c-0.796-22.3-2.503-35.271-7.282-54.044-1.479-5.916-2.958-12.060-3.413-13.653-0.341-1.593-3.072-9.216-5.916-17.067-23.552-63.943-72.249-117.532-133.916-147.228-6.258-2.958-12.288-5.916-13.312-6.485-4.551-2.389-25.372-9.33-37.092-12.516-23.324-6.258-60.871-8.988-91.819-6.713zM324.039 453.063c1.934 1.934 1.934 201.273 0 203.207-1.707 1.707-38.002 1.934-39.026 0.341-0.796-1.479-0.796-202.411 0-203.776 1.024-1.707 37.319-1.479 39.026 0.228zM736.711 452.836c0.796 1.365 0.796 202.297 0 203.776-1.024 1.593-37.319 1.365-39.026-0.341-1.934-1.934-1.934-201.273 0-203.207 1.707-1.707 38.002-1.934 39.026-0.228zM241.664 487.652c1.593 1.593 1.82 9.216 1.82 67.584 0 51.2-0.341 66.105-1.365 66.674-2.503 1.593-14.336 0.683-18.091-1.365-8.647-4.437-15.246-15.701-18.773-32.313-1.707-7.851-2.048-14.564-2.048-35.271 0.114-23.893 0.228-26.283 3.072-36.864 4.437-16.725 9.671-24.235 19.342-28.217 6.144-2.503 13.767-2.617 16.043-0.228zM795.762 487.765c10.24 3.755 17.18 15.019 21.39 35.044 2.162 10.354 1.82 54.613-0.569 64.967-5.461 23.893-14.222 34.588-28.331 34.588-3.527 0-7.168-0.341-8.192-0.683-1.593-0.683-1.82-7.509-1.82-66.446 0-73.273-0.455-69.404 7.737-69.404 2.276 0 6.713 0.91 9.785 1.934zM557.056 781.881c6.485 1.82 13.653 8.988 14.677 15.019 1.82 9.216-2.503 17.863-10.809 22.073-5.006 2.503-5.916 2.617-31.403 2.276l-26.283-0.341-4.096-3.186c-8.192-6.258-10.809-16.156-6.599-24.462 2.844-5.575 6.599-8.875 12.060-10.923 5.916-2.162 44.715-2.503 52.452-0.455z"></path>
</svg>
